
<svg xmlns="http://www.w3.org/2000/svg" viewBox="0 0 392.18 73.71"><defs><style>.cls-1{fill:#4c7fff;}.cls-2{fill:#4c7fff;}</style></defs><title>quickfile2</title><g id="Layer_2" data-name="Layer 2"><path class="cls-1" d="M339.26,262.5l-4.78,30.18c-1.09,6.9-2.46,13.74-8.62,18.94-5.18,4.41-12.48,6-18.74,6s-13.07-1.56-16.85-6c-4.52-5.2-3.72-12-2.62-18.94l4.78-30.18h13.95l-4.48,28.26c-1.1,7-1.81,14.59,7.16,14.59s10.67-7.62,11.78-14.59l4.47-28.26Z" transform="translate(-211.9 -249.45)"/><path class="cls-1" d="M353.54,316.17h-14l8.5-53.67h14Z" transform="translate(-211.9 -249.45)"/><path class="cls-1" d="M406.31,280.51c-2.24-3.85-6.54-5.91-11.31-5.91-8.54,0-15.34,6.55-16.66,14.88s3.53,14.59,12.21,14.59a19,19,0,0,0,12.93-5.7l-2.65,16.73c-4.85,1.43-8.36,2.49-12.71,2.49a25.5,25.5,0,0,1-18.89-7.9c-5.06-5.34-6.66-12.31-5.4-20.28a33.49,33.49,0,0,1,11-19.65c6.13-5.41,14.26-8.68,21.81-8.68a29.69,29.69,0,0,1,12.31,2.7Z" transform="translate(-211.9 -249.45)"/><path class="cls-1" d="M448.74,262.5H466l-25.38,25.41,18.8,28.26H441.38l-14.32-23.28h-.14l-3.69,23.28h-14l8.5-53.67h14l-3.51,22.14h.15Z" transform="translate(-211.9 -249.45)"/><path class="cls-2" d="M487.73,269.25l-1.59,10.05H503.3l-2.1,13.25H484l-3.74,23.62H464.66L474.19,256h34.55l-2.1,13.25Z" transform="translate(-211.9 -249.45)"/><path class="cls-2" d="M520,316.17H506l8.5-53.67h14Z" transform="translate(-211.9 -249.45)"/><path class="cls-2" d="M545.27,304.35H562l-1.87,11.82H529.45L538,262.5H551.9Z" transform="translate(-211.9 -249.45)"/><path class="cls-2" d="M585.62,274.32l-1.42,9h15.73l-1.87,11.82H582.33l-1.47,9.25h16.59l-1.87,11.82H565l8.5-53.67h30.54l-1.87,11.82Z" transform="translate(-211.9 -249.45)"/><path class="cls-1" d="M268,296.91l-26.09-5.07,6.6,9.15a15.88,15.88,0,0,1-4.1.54c-9.8,0-16.67-8-14.94-18.85a18.82,18.82,0,0,1,5.64-10.27l-10.32-1.26,2.5-12.37c-7.64,5.76-13.35,14-14.9,23.81-3.24,20.45,9.14,34.86,29.42,34.86a37.52,37.52,0,0,0,16.25-3.23l6.44,8.93Z" transform="translate(-211.9 -249.45)"/><path class="cls-1" d="M252.5,250.09A41.41,41.41,0,0,0,235,254.17l-3.27-4.72-3.88,19.2,18.77,2.29-2.7-3.89a19.36,19.36,0,0,1,6.18-1c9.88,0,16.41,8.54,14.91,18a19.09,19.09,0,0,1-3.27,7.84l10.57,2.05-1.59,12c6.16-6.47,10.08-13.67,11.39-21.94C285.32,263.41,272.18,250.09,252.5,250.09Z" transform="translate(-211.9 -249.45)"/></g></svg>